# xmcd
#
# Track frame offsets:
#	150
#	17992
#	37481
#	48575
#	62611
#	79913
#	92761
#	109874
#	124288
#	137649
#	153197
#	167989
#	185426
#	197707
#	214037
#	234632
#	252447
#	264189
#
# Disc length: 3703 seconds
#
# Revision: 0
# Processed by: cddbd v1.4PL0 Copyright (c) Steve Scherf et al.
# Submitted via: dBpowerAMP V4.0
#
DISCID=070e7512
DTITLE=Alan Jackson - The Greatest Hits Collection
DYEAR=1900
DGENRE=Country
TTITLE0=Chattahoochee
TTITLE1=Gone Country
TTITLE2=Tall Tall Trees
TTITLE3=Chasin` That Tress
TTITLE4=I`ll Try
TTITLE5=Dont Rock The Jukebox
TTITLE6=Livin` on Love
TTITLE7=Summertime Blues
TTITLE8=Love`s Got a Hold On You
TTITLE9=(Who Says) You Can`t Have It All
TTITLE10=Home
TTITLE11=I Dont Even Know Your Name
TTITLE12=Dallas
TTITLE13=Here In The Real World
TTITLE14=Meu Grito de Amor (My Shout Of Love)
TTITLE15=Vou Seguir Te Amando (I`ll Go on Loving You)
TTITLE16=Little Bitty
TTITLE17=Hurtin Gomes Easy
EXTD=
EXTT0=
EXTT1=
EXTT2=
EXTT3=
EXTT4=
EXTT5=
EXTT6=
EXTT7=
EXTT8=
EXTT9=
EXTT10=
EXTT11=
EXTT12=
EXTT13=
EXTT14=
EXTT15=
EXTT16=
EXTT17=
PLAYORDER=
